<?xml version="1.0" encoding="iso-8859-1"?>
<!-- Uploaded to: SVG Repo, www.svgrepo.com, Generator: SVG Repo Mixer Tools -->
<svg version="1.1" id="Layer_1" xmlns="http://www.w3.org/2000/svg" xmlns:xlink="http://www.w3.org/1999/xlink" 
	 viewBox="0 0 392.663 392.663" xml:space="preserve">
<path style="fill:#FFFFFF;" d="M258.036,21.786H82.198c-5.301,0-9.632,4.331-9.632,9.632v329.568c0,5.301,4.331,9.632,9.632,9.632
	h228.008c5.301,0,9.632-4.331,9.632-9.632V83.782"/>
<path style="fill:#FFC10D;" d="M250.861,43.572H105.212c-6.012,0-10.925,4.848-10.925,10.925v283.539
	c0,6.012,4.848,10.925,10.925,10.925h181.98c6.012,0,10.925-4.848,10.925-10.925V90.893"/>
<rect x="138.311" y="93.349" style="fill:#56ACE0;" width="24.889" height="19.394"/>
<g>
	<path style="fill:#194F82;" d="M174.061,71.499h-46.739c-6.012,0-10.925,4.848-10.925,10.925v41.18
		c0,6.012,4.848,10.925,10.925,10.925h46.739c6.012,0,10.925-4.848,10.925-10.925v-41.18
		C184.921,76.412,180.073,71.499,174.061,71.499z M163.135,112.679h-24.889V93.285h24.889V112.679z"/>
	<path style="fill:#194F82;" d="M265.147,134.529h-54.303c-6.012,0-10.925-4.848-10.925-10.925s4.848-10.925,10.925-10.925h54.303
		c6.012,0,10.925,4.848,10.925,10.925C276.073,129.552,271.16,134.529,265.147,134.529z"/>
</g>
<rect x="138.311" y="186.505" style="fill:#56ACE0;" width="24.889" height="19.394"/>
<g>
	<path style="fill:#194F82;" d="M174.061,164.719h-46.739c-6.012,0-10.925,4.848-10.925,10.925v41.18
		c0,6.012,4.848,10.925,10.925,10.925h46.739c6.012,0,10.925-4.848,10.925-10.925v-41.18
		C184.921,169.632,180.073,164.719,174.061,164.719z M163.135,205.899h-24.889v-19.394h24.889V205.899z"/>
	<path style="fill:#194F82;" d="M265.147,227.814h-54.303c-6.012,0-10.925-4.848-10.925-10.925s4.848-10.925,10.925-10.925h54.303
		c6.012,0,10.925,4.848,10.925,10.925S271.16,227.814,265.147,227.814z"/>
</g>
<rect x="138.311" y="279.79" style="fill:#56ACE0;" width="24.889" height="19.394"/>
<g>
	<path style="fill:#194F82;" d="M174.061,258.004h-46.739c-6.012,0-10.925,4.849-10.925,10.925v41.18
		c0,6.012,4.848,10.925,10.925,10.925h46.739c6.012,0,10.925-4.848,10.925-10.925v-41.18
		C184.921,262.853,180.073,258.004,174.061,258.004z M163.135,299.184h-24.889V279.79h24.889V299.184z"/>
	<path style="fill:#194F82;" d="M265.147,321.034h-54.303c-6.012,0-10.925-4.848-10.925-10.925c0-6.012,4.848-10.925,10.925-10.925
		h54.303c6.012,0,10.925,4.848,10.925,10.925S271.16,321.034,265.147,321.034z"/>
</g>
<polygon style="fill:#56ACE0;" points="279.822,61.996 304.517,61.996 279.822,37.236 "/>
<path style="fill:#194F82;" d="M332.574,59.087L282.731,9.244C276.719,3.232,268.832,0,260.428,0H82.198
	C64.873,0,50.78,14.158,50.78,31.547v329.568c0,17.39,14.158,31.547,31.547,31.547h228.008c17.39,0,31.547-14.158,31.547-31.547
	V81.39C341.754,72.921,338.521,65.034,332.574,59.087z M72.501,360.986V31.547c0-5.301,4.331-9.632,9.632-9.632h175.903v51.006
	c0,6.012,4.848,10.925,10.925,10.925h51.006V361.18c0,5.301-4.331,9.632-9.632,9.632H82.198
	C76.832,370.747,72.501,366.416,72.501,360.986z M279.822,61.996v-24.76l24.76,24.76H279.822z"/>
</svg>